<svg xmlns="http://www.w3.org/2000/svg" version="1.1" xmlns:xlink="http://www.w3.org/1999/xlink" width="512" height="512" x="0" y="0" viewBox="0 0 64 64" style="enable-background:new 0 0 512 512" xml:space="preserve"><g><path fill="#F7524B" d="m48.227 63.1-16.23-12.328L15.767 63.1c-2.882 2.19-7.025.134-7.025-3.486V10.682c0-5.896 4.78-10.676 10.676-10.676h25.158c5.896 0 10.676 4.78 10.676 10.676v48.932c0 3.62-4.143 5.676-7.025 3.486z" opacity="1" data-original="#f7524b"></path><path fill="#FFDC6E" d="m34.418 13.95 2.556 4.498c.254.446.688.761 1.19.865l5.069 1.04c2.116.435 2.953 3.01 1.496 4.606l-3.488 3.82c-.346.38-.512.89-.455 1.4l.576 5.142c.24 2.147-1.95 3.738-3.917 2.846l-4.712-2.137a1.781 1.781 0 0 0-1.472 0l-4.711 2.137c-1.968.892-4.159-.699-3.918-2.846l.576-5.142a1.781 1.781 0 0 0-.455-1.4l-3.488-3.82c-1.456-1.596-.62-4.17 1.497-4.605l5.068-1.041a1.781 1.781 0 0 0 1.19-.865l2.556-4.498c1.067-1.879 3.775-1.879 4.842 0z" opacity="1" data-original="#ffdc6e"></path><path d="M55.258 10.68v48.929c0 3.63-4.155 5.686-7.029 3.482l-12.568-9.525C45.376 39.613 50.495 18.61 35.766 0h8.812c5.896 0 10.68 4.784 10.68 10.68z" opacity="1" fill="#000000" data-original="#00000010" fill-opacity="0.063"></path></g></svg>